<svg xmlns="http://www.w3.org/2000/svg" version="1.1" xmlns:xlink="http://www.w3.org/1999/xlink" xmlns:svgjs="http://svgjs.dev/svgjs" width="1000" height="1000" viewBox="0 0 1000 1000"><g transform="matrix(1,0,0,1,0,0)"><svg viewBox="0 0 280 280" data-background-color="#ffffff" preserveAspectRatio="xMidYMid meet" height="1000" width="1000" xmlns="http://www.w3.org/2000/svg" xmlns:xlink="http://www.w3.org/1999/xlink"><g id="tight-bounds" transform="matrix(1,0,0,1,0,0)"><svg viewBox="0 0 280 280" height="280" width="280"><g><svg viewBox="0 0 280 280" height="280" width="280"><g><svg viewBox="0 0 280 280" height="280" width="280"><g id="textblocktransform"><svg viewBox="0 0 280 280" height="280" width="280" id="textblock"><g><svg viewBox="0 0 280 280" height="280" width="280"><g transform="matrix(1,0,0,1,74.00336708925556,74.00336708925556)"><svg viewBox="0 0 131.99326582148888 131.99326582148888" height="131.99326582148888" width="131.99326582148888"><g><svg xmlns="http://www.w3.org/2000/svg" xmlns:xlink="http://www.w3.org/1999/xlink" version="1.1" x="0" y="0" viewBox="5 5 90 90" style="enable-background:new 0 0 100 100;" xml:space="preserve" height="131.99326582148888" width="131.99326582148888" class="icon-o-0" data-fill-palette-color="accent" id="o-0"><path d="M50 51c0.256 0 0.512-0.098 0.707-0.293l8-8c0.391-0.391 0.391-1.023 0-1.414s-1.023-0.391-1.414 0l-8 8c-0.391 0.391-0.391 1.023 0 1.414C49.488 50.902 49.744 51 50 51z" fill="#dc0b14" data-fill-palette-color="accent"></path><path d="M50 57c0.256 0 0.512-0.098 0.707-0.293l8-8c0.391-0.391 0.391-1.023 0-1.414s-1.023-0.391-1.414 0l-8 8c-0.391 0.391-0.391 1.023 0 1.414C49.488 56.902 49.744 57 50 57z" fill="#dc0b14" data-fill-palette-color="accent"></path><path d="M50 63c0.256 0 0.512-0.098 0.707-0.293l8-8c0.391-0.391 0.391-1.023 0-1.414s-1.023-0.391-1.414 0l-8 8c-0.391 0.391-0.391 1.023 0 1.414C49.488 62.902 49.744 63 50 63z" fill="#dc0b14" data-fill-palette-color="accent"></path><path d="M50 69c0.256 0 0.512-0.098 0.707-0.293l8-8c0.391-0.391 0.391-1.023 0-1.414s-1.023-0.391-1.414 0l-8 8c-0.391 0.391-0.391 1.023 0 1.414C49.488 68.902 49.744 69 50 69z" fill="#dc0b14" data-fill-palette-color="accent"></path><path d="M50 75c0.256 0 0.512-0.098 0.707-0.293l8-8c0.391-0.391 0.391-1.023 0-1.414s-1.023-0.391-1.414 0l-8 8c-0.391 0.391-0.391 1.023 0 1.414C49.488 74.902 49.744 75 50 75z" fill="#dc0b14" data-fill-palette-color="accent"></path><path d="M50 81c0.256 0 0.512-0.098 0.707-0.293l8-8c0.391-0.391 0.391-1.023 0-1.414s-1.023-0.391-1.414 0l-8 8c-0.391 0.391-0.391 1.023 0 1.414C49.488 80.902 49.744 81 50 81z" fill="#dc0b14" data-fill-palette-color="accent"></path><path d="M50 87c0.256 0 0.512-0.098 0.707-0.293l8-8c0.391-0.391 0.391-1.023 0-1.414s-1.023-0.391-1.414 0l-8 8c-0.391 0.391-0.391 1.023 0 1.414C49.488 86.902 49.744 87 50 87z" fill="#dc0b14" data-fill-palette-color="accent"></path><path d="M94.93 91.35C94.972 91.238 95 91.123 95 91V43c0-0.265-0.105-0.52-0.293-0.707C94.328 41.914 85.273 33 73 33c-10.708 0-20.448 6.799-23 8.731C47.448 39.799 37.708 33 27 33c-12.273 0-21.328 8.914-21.707 9.293C5.105 42.48 5 42.735 5 43v48c0 0.123 0.029 0.238 0.07 0.35 0.013 0.033 0.029 0.063 0.045 0.095 0.038 0.075 0.084 0.144 0.14 0.207 0.023 0.026 0.045 0.054 0.07 0.078 0.076 0.069 0.161 0.129 0.258 0.173 0.012 0.006 0.021 0.016 0.032 0.02 0.001 0.001 0.001 0.001 0.002 0.002 0.111 0.045 0.228 0.063 0.344 0.068C5.975 91.992 5.986 92 6 92h36.612l-0.561 1.684c-0.103 0.305-0.051 0.641 0.137 0.9C42.377 94.846 42.679 95 43 95h14c0.321 0 0.623-0.154 0.812-0.416 0.188-0.26 0.239-0.596 0.137-0.9L57.388 92H94c0.014 0 0.024-0.007 0.037-0.008 0.117-0.004 0.234-0.021 0.346-0.068 0.001-0.001 0.001-0.001 0.002-0.002 0.012-0.004 0.021-0.014 0.032-0.02 0.097-0.045 0.182-0.104 0.258-0.173 0.026-0.024 0.047-0.052 0.07-0.078 0.056-0.063 0.102-0.132 0.14-0.207C94.9 91.412 94.917 91.383 94.93 91.35zM27 35c11.491 0 22.26 8.687 22.367 8.774 0.367 0.301 0.898 0.301 1.266 0C50.74 43.686 61.49 35 73 35c10.258 0 18.382 6.946 20 8.431v45.346C89.78 86.138 82.318 81 73 81c-10.708 0-20.448 6.799-23 8.731C47.448 87.799 37.708 81 27 81c-9.318 0-16.78 5.138-20 7.777v-2.363l7.707-7.707c0.391-0.391 0.391-1.023 0-1.414s-1.023-0.391-1.414 0L7 83.586v-3.172l7.707-7.707c0.391-0.391 0.391-1.023 0-1.414s-1.023-0.391-1.414 0L7 77.586v-3.172l7.707-7.707c0.391-0.391 0.391-1.023 0-1.414s-1.023-0.391-1.414 0L7 71.586v-3.172l7.707-7.707c0.391-0.391 0.391-1.023 0-1.414s-1.023-0.391-1.414 0L7 65.586v-3.172l7.707-7.707c0.391-0.391 0.391-1.023 0-1.414s-1.023-0.391-1.414 0L7 59.586v-3.172l7.707-7.707c0.391-0.391 0.391-1.023 0-1.414s-1.023-0.391-1.414 0L7 53.586v-3.172l7.707-7.707c0.391-0.391 0.391-1.023 0-1.414s-1.023-0.391-1.414 0L7 47.586v-4.155C8.618 41.946 16.742 35 27 35zM56 90c-0.321 0-0.623 0.154-0.812 0.416-0.188 0.26-0.239 0.596-0.137 0.9L55.612 93H44.388l0.561-1.684c0.103-0.305 0.051-0.641-0.137-0.9C44.623 90.154 44.321 90 44 90H8.703c3.223-2.533 10.062-7 18.297-7 11.491 0 22.26 8.687 22.367 8.774C49.551 91.925 49.775 92 50 92s0.449-0.075 0.633-0.227C50.74 91.686 61.49 83 73 83c8.235 0 15.074 4.467 18.297 7H56z" fill="#dc0b14" data-fill-palette-color="accent"></path><path d="M25 51h5v5c0 0.553 0.447 1 1 1s1-0.447 1-1v-5h5c0.553 0 1-0.447 1-1s-0.447-1-1-1h-5v-5c0-0.552-0.447-1-1-1s-1 0.448-1 1v5h-5c-0.553 0-1 0.447-1 1S24.447 51 25 51z" fill="#dc0b14" data-fill-palette-color="accent"></path><path d="M24.293 27.707C24.488 27.902 24.744 28 25 28s0.512-0.098 0.707-0.293L29 24.414l3.293 3.293C32.488 27.902 32.744 28 33 28s0.512-0.098 0.707-0.293c0.391-0.391 0.391-1.023 0-1.414L30.414 23l3.293-3.293c0.391-0.391 0.391-1.023 0-1.414s-1.023-0.391-1.414 0L29 21.586l-3.293-3.293c-0.391-0.391-1.023-0.391-1.414 0s-0.391 1.023 0 1.414L27.586 23l-3.293 3.293C23.902 26.684 23.902 27.316 24.293 27.707z" fill="#dc0b14" data-fill-palette-color="accent"></path><path d="M66.293 28.707C66.488 28.902 66.744 29 67 29s0.512-0.098 0.707-0.293l10-10c0.391-0.391 0.391-1.023 0-1.414s-1.023-0.391-1.414 0l-10 10C65.902 27.684 65.902 28.316 66.293 28.707z" fill="#dc0b14" data-fill-palette-color="accent"></path><path d="M25 61h12c0.553 0 1-0.447 1-1s-0.447-1-1-1H25c-0.553 0-1 0.447-1 1S24.447 61 25 61z" fill="#dc0b14" data-fill-palette-color="accent"></path><path d="M68 22c1.654 0 3-1.346 3-3s-1.346-3-3-3-3 1.346-3 3S66.346 22 68 22zM68 18c0.552 0 1 0.449 1 1s-0.448 1-1 1-1-0.449-1-1S67.448 18 68 18z" fill="#dc0b14" data-fill-palette-color="accent"></path><path d="M73 27c0 1.654 1.346 3 3 3s3-1.346 3-3-1.346-3-3-3S73 25.346 73 27zM77 27c0 0.551-0.448 1-1 1s-1-0.449-1-1 0.448-1 1-1S77 26.449 77 27z" fill="#dc0b14" data-fill-palette-color="accent"></path><path d="M43.68 9.944c0.105 0.036 0.214 0.053 0.319 0.053 0.416 0 0.805-0.262 0.948-0.675C44.979 9.227 45.776 7 48 7h10c0.553 0 1-0.448 1-1s-0.447-1-1-1H48c-3.679 0-4.898 3.533-4.948 3.684C42.877 9.206 43.158 9.767 43.68 9.944z" fill="#dc0b14" data-fill-palette-color="accent"></path><path d="M48.008 8.876l-0.988 7.928c-0.311 1.551-0.856 2.604-1.58 3.044-0.581 0.353-1.119 0.204-1.123 0.203-0.529-0.175-1.09 0.109-1.265 0.632-0.175 0.524 0.108 1.09 0.632 1.265 0.07 0.023 0.428 0.133 0.938 0.133 0.493 0 1.131-0.103 1.79-0.485 1.268-0.736 2.132-2.216 2.58-4.473l1-8c0.068-0.548-0.32-1.048-0.868-1.116C48.574 7.939 48.076 8.329 48.008 8.876z" fill="#dc0b14" data-fill-palette-color="accent"></path><path d="M54.992 9.124c0.068-0.548-0.32-1.048-0.868-1.116-0.553-0.069-1.048 0.321-1.116 0.868l-0.988 7.928c-0.623 3.116 0.786 4.659 2.313 5.064 0.306 0.082 0.615 0.12 0.923 0.12 1.612 0 3.158-1.065 3.693-2.672 0.175-0.524-0.108-1.09-0.632-1.265-0.528-0.176-1.092 0.108-1.265 0.633-0.333 0.996-1.438 1.457-2.206 1.251-0.853-0.227-1.168-1.225-0.854-2.812L54.992 9.124z" fill="#dc0b14" data-fill-palette-color="accent"></path><path d="M79.707 50.293c-0.391-0.391-1.023-0.391-1.414 0L76 52.586l-2.293-2.293c-0.391-0.391-1.023-0.391-1.414 0s-0.391 1.023 0 1.414L74.586 54l-2.293 2.293c-0.391 0.391-0.391 1.023 0 1.414C72.488 57.902 72.744 58 73 58s0.512-0.098 0.707-0.293L76 55.414l2.293 2.293C78.488 57.902 78.744 58 79 58s0.512-0.098 0.707-0.293c0.391-0.391 0.391-1.023 0-1.414L77.414 54l2.293-2.293C80.098 51.316 80.098 50.684 79.707 50.293z" fill="#dc0b14" data-fill-palette-color="accent"></path><path d="M67.2 58.6c0.19 0.256 0.489 0.4 0.8 0.4 0.065 0 0.132-0.006 0.198-0.02 0.378-0.076 0.679-0.363 0.771-0.738L71.781 47h8.601l0.724 1.447c0.248 0.494 0.848 0.693 1.342 0.447 0.494-0.247 0.694-0.848 0.447-1.342l-1-2C81.725 45.214 81.379 45 81 45H71c-0.459 0-0.858 0.313-0.97 0.757l-2.491 9.961L65.8 53.4c-0.331-0.441-0.959-0.533-1.399-0.2-0.442 0.331-0.532 0.958-0.2 1.399L67.2 58.6z" fill="#dc0b14" data-fill-palette-color="accent"></path></svg></g></svg></g><g><path d="M22.022 98.336l0.032-0.087-12.988-9.627 2.241-6.267 1.372 0.49-0.207 2.176 13.331 4.767 1.22-1.814 1.372 0.491-2.436 6.812-1.372-0.491 0.113-1.913-13.312-4.76 13.645 9.752-1.204 3.367-16.7-1.208 13.312 4.76 1.126-1.551 1.372 0.49-2.14 5.985-1.372-0.491 0.207-2.175-13.332-4.767-1.219 1.814-1.372-0.491 2.276-6.364z" fill="#1e55b3" data-fill-palette-color="primary"></path><path d="M19.01 70.753l-0.649 2.339 12.468 6.71 1.595-1.829 1.283 0.69-3.796 7.053-1.283-0.691 0.648-2.338-12.467-6.71-1.595 1.829-1.283-0.691 3.796-7.052z" fill="#1e55b3" data-fill-palette-color="primary"></path><path d="M34.305 75.063l0.809-2.031-11.461-8.313-1.679 1.4-1.179-0.856 3.416-4.71 15.72 0.998-9.16-6.645-1.679 1.4-1.18-0.856 3.896-5.371 1.18 0.856-0.809 2.031 13.075 9.484-1.644 2.267-17.185-0.95 10.097 7.324 1.673-1.391 1.179 0.856-3.889 5.362z" fill="#1e55b3" data-fill-palette-color="primary"></path><path d="M39.494 50.052l-3.987-4.036 11.219-11.083 3.987 4.036-1.147 1.133-3.231-2.124-2.72 2.687 9.972 10.094 2.325-1.44 1.024 1.037-6.131 6.057-1.024-1.037 1.468-2.307-9.972-10.094-2.743 2.709 2.107 3.235z" fill="#1e55b3" data-fill-palette-color="primary"></path><path d="M57.856 27.918l-1.538 1.877 8.695 11.174 2.198-1.03 0.895 1.15-6.321 4.919-0.895-1.15 1.538-1.877-8.696-11.174-2.197 1.029-0.895-1.15 6.321-4.918z" fill="#1e55b3" data-fill-palette-color="primary"></path><path d="M69.274 20.732l-1.97 1.816 7.367 12.212 5.221-3.15-1.518-4.177 1.84-1.11 3.23 5.353-12.628 7.618-0.752-1.248 1.749-1.682-7.314-12.123-2.304 0.762-0.753-1.248 7.079-4.27z" fill="#1e55b3" data-fill-palette-color="primary"></path><path d="M91.714 14.396l2.576 6.125-1.877 0.789-1.317-2.013-3.182 1.338 2.512 5.973 6.392-2.688-0.798-3.712 2.048-0.861 2.179 5.182-14.289 6.01-0.565-1.343 1.973-1.413-5.489-13.051-2.39 0.422-0.565-1.343 13.775-5.793 2.072 4.925-1.905 0.801-2.035-2.945-5.992 2.52 2.344 5.573 3.181-1.338-0.525-2.369z" fill="#1e55b3" data-fill-palette-color="primary"></path><path d="M121.395 17.226l0.092-0.014 2.238-16.011 6.575-1.031 0.226 1.439-2.01 0.859 2.194 13.988 2.177 0.202 0.225 1.44-7.146 1.121-0.226-1.44 1.734-0.816-2.191-13.967-2.033 16.649-3.533 0.554-6.931-15.242 2.191 13.966 1.901 0.246 0.226 1.44-6.279 0.985-0.226-1.44 2.01-0.859-2.194-13.987-2.177-0.203-0.225-1.44 6.677-1.047z" fill="#1e55b3" data-fill-palette-color="primary"></path><path d="M146.017 17.057l2.085-0.461-1.138-3.951-6.144-0.225-1.455 3.856 2.066 0.613-0.053 1.456-6.651-0.243 0.053-1.456 2.086-0.462 6.498-16.184 3.098 0.114 5.244 16.614 1.995 0.611-0.054 1.456-7.684-0.282zM144.347 3.366l-0.093-0.003-2.737 7.242 4.905 0.179z" fill="#1e55b3" data-fill-palette-color="primary"></path><path d="M156.099 6.561l0.973-5.59 15.537 2.703-0.972 5.59-1.589-0.277-0.146-3.864-3.767-0.656-2.432 13.98 2.523 1.058-0.25 1.435-8.492-1.477 0.25-1.436 2.731-0.143 2.432-13.98-3.797-0.66-1.412 3.593z" fill="#1e55b3" data-fill-palette-color="primary"></path><path d="M187.084 13.947l-2.084 6.31-1.933-0.639 0.33-2.383-3.278-1.082-2.032 6.152 6.584 2.175 1.838-3.322 2.11 0.697-1.764 5.338-14.719-4.862 0.457-1.383 2.415 0.232 4.441-13.444-2.079-1.253 0.457-1.383 14.19 4.686-1.676 5.074-1.962-0.648 0.402-3.557-6.173-2.039-1.896 5.741 3.278 1.082 1.161-2.13z" fill="#1e55b3" data-fill-palette-color="primary"></path><path d="M200.814 31.547l0.081 0.044 11.518-11.345 5.845 3.182-0.696 1.28-2.118-0.541-6.769 12.436 1.604 1.484-0.697 1.28-6.354-3.458 0.697-1.28 1.873 0.407 6.759-12.417-11.743 11.975-3.141-1.709 3.773-16.313-6.759 12.417 1.359 1.351-0.696 1.28-5.583-3.038 0.697-1.28 2.118 0.541 6.768-12.436-1.603-1.485 0.696-1.28 5.937 3.232z" fill="#1e55b3" data-fill-palette-color="primary"></path><path d="M220.458 46.391l1.935 0.903 1.501-3.828-4.74-3.917-3.5 2.175 1.267 1.744-0.928 1.123-5.131-4.239 0.929-1.124 1.935 0.903 15.004-8.891 2.389 1.975-5.945 16.376 1.211 1.698-0.929 1.124-5.926-4.898zM227.462 34.509l-0.072-0.059-6.578 4.083 3.784 3.127z" fill="#1e55b3" data-fill-palette-color="primary"></path><path d="M234.846 44.196l4.174-3.843 10.683 11.601-4.173 3.843-1.092-1.186 2.236-3.155-2.59-2.813-10.438 9.612 1.358 2.375-1.072 0.987-5.839-6.34 1.072-0.987 2.255 1.548 10.437-9.612-2.611-2.836-3.307 1.992z" fill="#1e55b3" data-fill-palette-color="primary"></path><path d="M256.324 63.32l-1.822-1.602-11.471 8.3 0.952 2.232-1.18 0.854-4.696-6.489 1.181-0.854 1.823 1.602 11.47-8.3-0.952-2.232 1.181-0.854 4.695 6.489z" fill="#1e55b3" data-fill-palette-color="primary"></path><path d="M263.099 75.098v0c-0.311-0.56-0.724-1.029-1.239-1.405-0.516-0.376-1.08-0.599-1.694-0.668v0c-0.793-0.08-1.695-0.017-2.707 0.189-1.006 0.203-2.033 0.595-3.082 1.176v0c-1.043 0.578-1.957 1.23-2.743 1.958-0.79 0.721-1.385 1.453-1.785 2.194v0c-0.32 0.603-0.445 1.243-0.377 1.922 0.072 0.685 0.299 1.37 0.68 2.057v0c1.369 2.471 3.417 3.23 6.142 2.279v0l1.037 1.872c-4.043 1.303-7.103 0.081-9.18-3.668v0c-1.125-2.031-1.435-3.974-0.928-5.831v0c0.308-1.108 0.891-2.152 1.75-3.132 0.862-0.974 1.947-1.824 3.255-2.548v0c1.482-0.822 2.96-1.325 4.432-1.511 1.476-0.18 2.819-0.03 4.03 0.449v0c1.549 0.607 2.831 1.826 3.847 3.658v0c0.508 0.916 0.803 1.725 0.884 2.428 0.082 0.703-0.026 1.503-0.323 2.4v0l1.632-0.337 1.042 1.88-5.197 2.88-1.113-2.006c1.176-0.92 1.894-1.92 2.154-3.001 0.257-1.072 0.085-2.15-0.517-3.235z" fill="#1e55b3" data-fill-palette-color="primary"></path><path d="M269.017 98.702l-6.232 2.309-0.707-1.909 2.068-1.23-1.199-3.236-6.076 2.251 2.409 6.502 3.743-0.637 0.772 2.084-5.272 1.953-5.386-14.536 1.367-0.506 1.326 2.032 13.276-4.919-0.318-2.406 1.366-0.506 5.192 14.013-5.01 1.856-0.718-1.938 3.03-1.905-2.258-6.096-5.669 2.101 1.199 3.236 2.389-0.422z" fill="#1e55b3" data-fill-palette-color="primary"></path><path d="M14.246 188.943l0.031 0.088 16.148-0.791 2.24 6.267-1.372 0.491-1.219-1.814-13.332 4.767 0.208 2.175-1.372 0.491-2.436-6.812 1.372-0.49 1.125 1.551 13.313-4.76-16.736 1.111-1.204-3.367 13.681-9.655-13.313 4.76 0.114 1.913-1.372 0.491-2.14-5.985 1.372-0.491 1.219 1.814 13.332-4.767-0.208-2.176 1.373-0.49 2.275 6.364z" fill="#1e55b3" data-fill-palette-color="primary"></path><path d="M36.417 204.377l-1.594-1.829-12.468 6.71 0.649 2.338-1.283 0.691-3.796-7.053 1.283-0.69 1.595 1.829 12.467-6.71-0.648-2.339 1.283-0.69 3.796 7.052z" fill="#1e55b3" data-fill-palette-color="primary"></path><path d="M25.646 215.717l1.679 1.4 11.46-8.313-0.809-2.031 1.18-0.855 3.416 4.709-5.829 14.634 9.16-6.645-0.809-2.03 1.18-0.856 3.895 5.371-1.179 0.856-1.679-1.4-13.075 9.484-1.645-2.267 6.239-16.041-10.098 7.325 0.803 2.022-1.179 0.855-3.89-5.362z" fill="#1e55b3" data-fill-palette-color="primary"></path><path d="M47.461 226.383l3.988-4.037 11.219 11.084-3.988 4.036-1.147-1.133 2.085-3.257-2.72-2.688-9.972 10.094 1.468 2.308-1.024 1.037-6.132-6.058 1.024-1.036 2.326 1.44 9.972-10.094-2.742-2.709-3.21 2.146z" fill="#1e55b3" data-fill-palette-color="primary"></path><path d="M69.996 240.98l-2.197-1.029-8.696 11.173 1.538 1.878-0.895 1.15-6.321-4.919 0.895-1.15 2.198 1.029 8.695-11.173-1.537-1.878 0.894-1.15 6.321 4.919z" fill="#1e55b3" data-fill-palette-color="primary"></path><path d="M79.486 246.84l-2.525-0.896-7.367 12.211 5.22 3.15 2.988-3.291 1.84 1.11-3.229 5.354-12.628-7.618 0.753-1.248 2.304 0.763 7.313-12.123-1.748-1.683 0.752-1.248 7.08 4.271z" fill="#1e55b3" data-fill-palette-color="primary"></path><path d="M96.245 259.33l-2.577 6.126-1.876-0.79 0.517-2.349-3.182-1.339-2.512 5.973 6.392 2.689 2.095-3.167 2.048 0.862-2.18 5.182-14.289-6.01 0.565-1.343 2.389 0.422 5.489-13.051-1.973-1.413 0.565-1.343 13.775 5.793-2.071 4.925-1.905-0.801 0.681-3.514-5.992-2.52-2.344 5.573 3.182 1.338 1.326-2.032z" fill="#1e55b3" data-fill-palette-color="primary"></path><path d="M120.116 275.432l0.092 0.014 7.032-14.557 6.575 1.031-0.226 1.44-2.176 0.203-2.194 13.987 2.01 0.859-0.226 1.44-7.147-1.121 0.226-1.44 1.901-0.246 2.19-13.967-7.032 15.227-3.533-0.554-1.931-16.633-2.191 13.967 1.734 0.816-0.226 1.44-6.279-0.985 0.226-1.44 2.176-0.202 2.194-13.988-2.009-0.859 0.225-1.439 6.678 1.047z" fill="#1e55b3" data-fill-palette-color="primary"></path><path d="M146.409 278.132l2.045-0.613-1.423-3.857-6.145 0.226-1.169 3.952 2.106 0.46 0.053 1.456-6.651 0.244-0.053-1.456 2.046-0.613 5.296-16.616 3.098-0.114 6.447 16.186 2.033 0.464 0.054 1.456-7.684 0.281zM143.741 264.6l-0.093 0.003-2.2 7.423 4.906-0.18z" fill="#1e55b3" data-fill-palette-color="primary"></path><path d="M154.157 266.77l-0.973-5.59 15.537-2.702 0.973 5.589-1.589 0.277-1.442-3.589-3.767 0.656 2.432 13.979 2.731 0.144 0.25 1.435-8.492 1.478-0.249-1.436 2.522-1.058-2.432-13.979-3.798 0.661-0.115 3.859z" fill="#1e55b3" data-fill-palette-color="primary"></path><path d="M183.418 259.454l2.085 6.31-1.934 0.639-1.154-2.111-3.278 1.082 2.033 6.153 6.584-2.175-0.503-3.763 2.11-0.697 1.763 5.339-14.719 4.862-0.457-1.384 2.078-1.253-4.44-13.444-2.416 0.232-0.457-1.383 14.19-4.687 1.676 5.073-1.963 0.649-1.795-3.097-6.173 2.039 1.896 5.74 3.278-1.082-0.337-2.403z" fill="#1e55b3" data-fill-palette-color="primary"></path><path d="M204.762 260.206l0.082-0.045-3.276-15.831 5.846-3.182 0.696 1.28-1.603 1.485 6.768 12.435 2.118-0.541 0.697 1.28-6.354 3.459-0.697-1.28 1.359-1.352-6.759-12.417 3.682 16.363-3.14 1.709-11.652-12.024 6.759 12.417 1.872-0.408 0.697 1.28-5.582 3.039-0.697-1.28 1.604-1.485-6.769-12.435-2.118 0.541-0.696-1.28 5.936-3.232z" fill="#1e55b3" data-fill-palette-color="primary"></path><path d="M227.273 246.354l1.25-1.731-3.476-2.195-4.74 3.917 1.477 3.847 1.952-0.915 0.928 1.123-5.13 4.24-0.929-1.123 1.251-1.731-5.906-16.41 2.39-1.975 14.964 8.924 1.895-0.869 0.929 1.123-5.927 4.898zM216.923 237.237l-0.072 0.059 2.77 7.229 3.784-3.127z" fill="#1e55b3" data-fill-palette-color="primary"></path><path d="M226.508 232.624l-4.174-3.844 10.684-11.601 4.173 3.844-1.092 1.186-3.328-1.97-2.591 2.813 10.438 9.612 2.255-1.548 1.072 0.987-5.839 6.34-1.072-0.987 1.358-2.374-10.438-9.612-2.611 2.835 2.257 3.133z" fill="#1e55b3" data-fill-palette-color="primary"></path><path d="M240.309 209.59l-0.952 2.233 11.47 8.3 1.823-1.603 1.18 0.855-4.695 6.488-1.18-0.854 0.952-2.232-11.471-8.3-1.823 1.602-1.18-0.854 4.695-6.489z" fill="#1e55b3" data-fill-palette-color="primary"></path><path d="M245.862 199.849v0c-0.311 0.56-0.489 1.159-0.534 1.795-0.046 0.636 0.065 1.233 0.331 1.79v0c0.352 0.715 0.884 1.447 1.596 2.196 0.705 0.745 1.582 1.409 2.631 1.99v0c1.043 0.578 2.081 1.007 3.114 1.288 1.03 0.287 1.966 0.404 2.807 0.351v0c0.681-0.048 1.29-0.281 1.829-0.7 0.542-0.424 1.004-0.98 1.384-1.666v0c1.369-2.471 0.928-4.61-1.323-6.417v0l1.037-1.871c3.248 2.738 3.834 5.981 1.756 9.728v0c-1.125 2.031-2.61 3.323-4.453 3.878v0c-1.102 0.326-2.297 0.385-3.583 0.176-1.283-0.215-2.578-0.685-3.886-1.409v0c-1.482-0.822-2.693-1.807-3.631-2.958-0.935-1.156-1.52-2.374-1.755-3.655v0c-0.307-1.635 0.047-3.369 1.063-5.2v0c0.508-0.916 1.038-1.595 1.589-2.038 0.552-0.442 1.288-0.775 2.208-0.998v0l-1.152-1.205 1.042-1.88 5.198 2.88-1.112 2.007c-1.403-0.51-2.632-0.588-3.687-0.235-1.045 0.35-1.868 1.068-2.469 2.153z" fill="#1e55b3" data-fill-palette-color="primary"></path><path d="M258.057 181.737l6.232 2.308-0.708 1.909-2.37-0.415-1.199 3.237 6.076 2.251 2.409-6.502-3.254-1.956 0.772-2.083 5.272 1.953-5.386 14.536-1.366-0.506 0.318-2.406-13.276-4.919-1.326 2.033-1.367-0.507 5.192-14.012 5.01 1.856-0.718 1.938-3.54-0.529-2.258 6.095 5.669 2.101 1.199-3.237-2.088-1.236z" fill="#1e55b3" data-fill-palette-color="primary"></path><path d="M2.753 142.25c0-3.882 3.147-7.03 7.029-7.03 3.882 0 7.03 3.147 7.03 7.03 0 3.882-3.147 7.03-7.03 7.029-3.882 0-7.03-3.147-7.029-7.029z" fill="#1e55b3" data-fill-palette-color="primary"></path><path d="M263.188 142.25c0-3.882 3.147-7.03 7.03-7.03 3.882 0 7.03 3.147 7.029 7.03 0 3.882-3.147 7.03-7.029 7.029-3.882 0-7.03-3.147-7.03-7.029z" fill="#1e55b3" data-fill-palette-color="primary"></path></g></svg></g></svg></g></svg></g><g></g></svg></g><defs></defs></svg><rect width="280" height="280" fill="none" stroke="none" visibility="hidden"></rect></g></svg></g></svg>